<?xml version="1.0" standalone="no"?><!DOCTYPE svg PUBLIC "-//W3C//DTD SVG 1.1//EN" "http://www.w3.org/Graphics/SVG/1.1/DTD/svg11.dtd"><svg t="1722135069504" class="icon" viewBox="0 0 1024 1024" version="1.1" xmlns="http://www.w3.org/2000/svg" p-id="2176" xmlns:xlink="http://www.w3.org/1999/xlink" width="66" height="66"><path d="M597.3504 42.7008v181.3504h257.8944c44.1856 0 81.6128 15.36 112.2304 46.08 30.5664 30.6176 45.8752 68.0448 45.8752 112.2304v387.328c0 44.1856-15.36 81.6128-45.9264 112.2816-30.6688 30.72-68.096 46.08-112.2304 46.08H394.6496v-202.7008H128a128 128 0 0 1-128-128V170.7008a128 128 0 0 1 128-128h469.3504zM128 106.7008c-17.664 0-32.768 6.2464-45.2608 18.7392a61.6448 61.6448 0 0 0-18.7392 45.2608v426.6496c0 17.664 6.2464 32.768 18.7392 45.2608s27.5968 18.7392 45.2608 18.7392h405.3504V106.7008H128zM148.48 512l110.4896-296.0896h80.64L449.6896 512h-64l-26.0096-75.9296H237.6704L210.3296 512H148.48zM296.5504 269.312l-41.4208 116.48h86.6304l-40.0896-116.48h-5.12z m300.8 456.0896l-104.448 138.7008h362.2912c26.4704 0 48.7936-9.1136 66.9184-27.2896 18.1248-18.176 27.2384-40.4992 27.2384-67.072V382.3616c0-26.5728-9.0624-48.896-27.1872-67.072a90.7776 90.7776 0 0 0-66.9184-27.2384h-257.8944v437.2992z m132.0448-2.0992a445.44 445.44 0 0 1-48.64-3.4304 224 224 0 0 1-35.84-6.8096v-49.92c8.8064 2.816 21.0432 5.3248 36.6592 7.424 15.6672 2.1504 31.5904 3.4816 47.8208 4.096V593.92c-22.2208-4.608-39.2192-10.0352-50.9952-16.4352a55.1936 55.1936 0 0 1-24.9856-25.3952c-4.8128-10.5472-7.2192-24.7296-7.2192-42.6496 0-26.4704 6.9632-46.08 20.8896-58.6752 13.9264-12.6976 34.7136-19.8656 62.3104-21.5552v-39.68h31.1296v39.68c13.1072 0.5632 25.9584 1.792 38.6048 3.584 12.6976 1.8944 22.4256 3.9424 29.2352 6.2464V486.4a205.0048 205.0048 0 0 0-29.6448-6.656 325.632 325.632 0 0 0-38.1952-4.0448v75.52c22.2208 4.864 39.4752 10.8032 51.8656 17.92 12.3392 7.168 21.1968 16.128 26.4192 27.136 5.2736 10.9056 7.936 25.088 7.936 42.4448 0 26.9824-6.7584 47.2064-20.2752 60.5696s-35.4816 21.0432-65.9456 23.04v61.8496h-31.1296v-60.9792z m-24.576-238.08c-4.6592 4.8128-7.0144 12.9024-7.0144 24.32 0 9.9328 2.048 17.3056 5.9904 22.1696 3.9936 4.8128 12.4928 9.1136 25.6 12.8V476.16c-11.6736 1.1264-19.8656 4.096-24.576 8.96z m55.7056 188.5696c12.544-1.4336 21.3504-4.7104 26.4704-9.8304 5.12-5.12 7.68-13.2096 7.68-24.32 0-10.752-2.304-18.8416-6.8608-24.064-4.5056-5.2736-13.6192-10.0864-27.2896-14.336v72.5504zM458.6496 803.84l59.1872-78.5408H458.6496v78.5408z" p-id="2177" fill="#1296db"></path></svg>