<?xml version="1.0" standalone="no"?><!DOCTYPE svg PUBLIC "-//W3C//DTD SVG 1.1//EN" "http://www.w3.org/Graphics/SVG/1.1/DTD/svg11.dtd"><svg t="1726132043995" class="icon" viewBox="0 0 1024 1024" version="1.1" xmlns="http://www.w3.org/2000/svg" p-id="4254" xmlns:xlink="http://www.w3.org/1999/xlink" width="200" height="200"><path d="M742.968889 910.222222V375.978667L910.222222 448.682667V303.104l-214.584889-117.191111C636.359111 250.538667 574.577778 287.914667 518.656 294.456889L512 295.253333l-6.656-0.796444c-55.921778-6.542222-117.76-43.918222-176.981333-108.544L113.777778 303.104v145.635556l167.253333-72.817778V910.222222h461.937778z m113.777778 113.777778H167.253333V549.546667L0 622.250667V235.633778L356.864 40.732444l29.696 37.944889C434.460444 139.832889 480.426667 173.112889 512 180.337778c31.630222-7.224889 77.539556-40.504889 125.44-101.660445l29.696-37.944889L1024 235.633778v386.616889L856.746667 549.546667V1024z" fill="currentColor" p-id="4255"></path></svg>