<?xml version="1.0" standalone="no"?><!DOCTYPE svg PUBLIC "-//W3C//DTD SVG 1.1//EN" "http://www.w3.org/Graphics/SVG/1.1/DTD/svg11.dtd"><svg t="1726046433336" class="icon" viewBox="0 0 1024 1024" version="1.1" xmlns="http://www.w3.org/2000/svg" p-id="4924" data-spm-anchor-id="a313x.search_index.0.i10.505e3a81PW6tFX" xmlns:xlink="http://www.w3.org/1999/xlink" width="200" height="200"><path d="M42.666667 640m42.666666 0l170.666667 0q42.666667 0 42.666667 42.666667l0 170.666666q0 42.666667-42.666667 42.666667l-170.666667 0q-42.666667 0-42.666666-42.666667l0-170.666666q0-42.666667 42.666666-42.666667Z" fill="#2c2c2c" p-id="4925" data-spm-anchor-id="a313x.search_index.0.i8.505e3a81PW6tFX" class=""></path><path d="M716.8 640m42.666667 0l170.666666 0q42.666667 0 42.666667 42.666667l0 170.666666q0 42.666667-42.666667 42.666667l-170.666666 0q-42.666667 0-42.666667-42.666667l0-170.666666q0-42.666667 42.666667-42.666667Z" fill="#f4ea2a" p-id="4926" data-spm-anchor-id="a313x.search_index.0.i9.505e3a81PW6tFX" class=""></path><path d="M384 640m42.666667 0l170.666666 0q42.666667 0 42.666667 42.666667l0 170.666666q0 42.666667-42.666667 42.666667l-170.666666 0q-42.666667 0-42.666667-42.666667l0-170.666666q0-42.666667 42.666667-42.666667Z" fill="#1296db" p-id="4927" data-spm-anchor-id="a313x.search_index.0.i7.505e3a81PW6tFX" class=""></path><path d="M468.096 537.6v25.6L405.802667 512l62.293333-51.2v25.6h93.226667c19.584 0 38.613333-5.034667 54.485333-14.464 15.872-9.386667 27.733333-22.613333 33.962667-37.888a64 64 0 0 0 0.682666-47.146667 78.762667 78.762667 0 0 0-32.853333-38.570666l0.341333-0.341334 43.818667-36.096c24.32 16.938667 41.728 39.594667 49.877333 64.981334 8.106667 25.344 6.613333 52.138667-4.309333 76.8-10.965333 24.576-30.848 45.866667-56.96 60.885333-26.112 14.976-57.173333 23.04-89.045333 23.04H468.053333h0.042667z m62.165333-256V256l63.616 51.2-63.573333 51.2v-25.6h-93.269333c-19.541333 0-38.613333 5.077333-54.485334 14.464-15.872 9.386667-27.733333 22.656-33.962666 37.930667a64 64 0 0 0-0.64 47.104c5.76 15.36 17.28 28.885333 32.853333 38.570666l-44.202667 36.437334c-24.32-16.981333-41.685333-39.637333-49.834666-64.981334a106.709333 106.709333 0 0 1 4.309333-76.8c10.965333-24.576 30.848-45.824 56.96-60.842666a179.328 179.328 0 0 1 89.002667-23.082667h93.269333z" fill="#d4237a" p-id="4928" data-spm-anchor-id="a313x.search_index.0.i12.505e3a81PW6tFX" class="selected"></path><path d="M213.333333 170.666667h597.333334a42.666667 42.666667 0 0 1 42.666666 42.666666v401.066667h42.666667V213.333333a85.333333 85.333333 0 0 0-85.333333-85.333333H213.333333a85.333333 85.333333 0 0 0-85.333333 85.333333v401.066667h42.666667V213.333333a42.666667 42.666667 0 0 1 42.666666-42.666666z" fill="#475061" p-id="4929" data-spm-anchor-id="a313x.search_index.0.i11.505e3a81PW6tFX" class=""></path></svg>